<?xml version="1.0" encoding="utf-8"?>
<!-- Generator: Adobe Illustrator 25.3.1, SVG Export Plug-In . SVG Version: 6.00 Build 0)  -->
<svg version="1.1" id="Layer_1" xmlns="http://www.w3.org/2000/svg" xmlns:xlink="http://www.w3.org/1999/xlink" x="0px" y="0px"
	 viewBox="0 0 1200 650" style="enable-background:new 0 0 1200 650;" xml:space="preserve">
<style type="text/css">
	.st0{fill:none;stroke:#201D1E;stroke-linecap:round;stroke-miterlimit:10;}
	.st1{fill:none;}
</style>
<g>
	<g>
		<path class="st0" d="M171-166.4c393.2,176.4-69.6,332.3,11.2,523.2c50.1,118.4,375.4,293.5,82.4,392.9"/>
	</g>
	<g>
		<path class="st0" d="M175-173.2c376.8,171.3-67.3,332.8,9.9,522.5c47.9,117.7,359.5,288.6,78.4,391.4"/>
	</g>
	<g>
		<path class="st0" d="M178.9-180.1c361.1,166.5-65,333.2,8.7,521.8c45.7,116.9,344.4,283.8,74.6,390"/>
	</g>
	<g>
		<path class="st0" d="M182.6-187c346,161.8-62.9,333.7,7.6,521.1c43.7,116.2,329.8,279.2,70.9,388.7"/>
	</g>
	<g>
		<path class="st0" d="M186.2-193.9c331.6,157.4-60.8,334.1,6.5,520.5c41.7,115.6,315.9,274.9,67.5,387.4"/>
	</g>
	<g>
		<path class="st0" d="M189.6-200.8c317.8,153.1-58.8,334.5,5.4,519.9c39.8,114.9,302.5,270.7,64.1,386.1"/>
	</g>
	<g>
		<path class="st0" d="M193-207.8c304.5,149-56.9,334.9,4.4,519.2c38,114.3,289.7,266.6,60.9,384.9"/>
	</g>
	<g>
		<path class="st0" d="M196.1-214.9c291.8,145.1-55.1,335.2,3.4,518.6c36.3,113.7,277.4,262.8,57.8,383.8"/>
	</g>
	<g>
		<path class="st0" d="M199.2-221.9c279.6,141.3-53.3,335.5,2.5,518c34.6,113.2,265.7,259.1,54.9,382.6"/>
	</g>
	<g>
		<path class="st0" d="M202.2-229c268,137.7-51.6,335.8,1.6,517.4c33,112.6,254.4,255.5,52,381.5"/>
	</g>
	<g>
		<path class="st0" d="M205-236.1c256.8,134.3-50,336.1,0.8,516.8c31.5,112.1,243.6,252.1,49.3,380.5"/>
	</g>
</g>
<rect x="235.2" y="-1599.6" class="st1" width="1920" height="1080"/>
</svg>
